<mxfile host="app.diagrams.net" agent="Mozilla/5.0 (Windows NT 10.0; Win64; x64) AppleWebKit/537.36 (KHTML, like Gecko) Chrome/141.0.0.0 Safari/537.36" version="28.2.7">
  <diagram name="Page-1" id="wTuVM8rvxRAYy204aHr7">
    <mxGraphModel dx="1678" dy="924" grid="1" gridSize="10" guides="1" tooltips="1" connect="1" arrows="1" fold="1" page="1" pageScale="1" pageWidth="827" pageHeight="1169" math="0" shadow="0">
      <root>
        <mxCell id="0" />
        <mxCell id="1" parent="0" />
        <mxCell id="_MuA-XIjGsqE9UW4ploj-3" value="" style="whiteSpace=wrap;html=1;aspect=fixed;" vertex="1" parent="1">
          <mxGeometry x="440" y="60" width="810" height="810" as="geometry" />
        </mxCell>
        <mxCell id="_MuA-XIjGsqE9UW4ploj-4" value="Utilisateur" style="shape=umlActor;verticalLabelPosition=bottom;verticalAlign=top;html=1;outlineConnect=0;" vertex="1" parent="1">
          <mxGeometry x="160" y="305" width="90" height="120" as="geometry" />
        </mxCell>
        <mxCell id="_MuA-XIjGsqE9UW4ploj-8" value="&lt;font style=&quot;font-size: 18px;&quot;&gt;Site web jeu vidéo&lt;/font&gt;" style="rounded=0;whiteSpace=wrap;html=1;" vertex="1" parent="1">
          <mxGeometry x="440" y="60" width="320" height="40" as="geometry" />
        </mxCell>
        <mxCell id="_MuA-XIjGsqE9UW4ploj-14" value="&lt;font style=&quot;font-size: 24px;&quot;&gt;Connexion&lt;/font&gt;" style="ellipse;whiteSpace=wrap;html=1;" vertex="1" parent="1">
          <mxGeometry x="602" y="110" width="213" height="100" as="geometry" />
        </mxCell>
        <mxCell id="_MuA-XIjGsqE9UW4ploj-15" value="&lt;span style=&quot;font-size: 24px;&quot;&gt;Afficher site web&lt;/span&gt;" style="ellipse;whiteSpace=wrap;html=1;" vertex="1" parent="1">
          <mxGeometry x="597" y="220" width="223" height="110" as="geometry" />
        </mxCell>
        <mxCell id="_MuA-XIjGsqE9UW4ploj-16" value="&lt;span style=&quot;font-size: 24px;&quot;&gt;Menu déroulant&amp;nbsp;&lt;/span&gt;&lt;div&gt;&lt;span style=&quot;font-size: 24px;&quot;&gt;avec review&lt;/span&gt;&lt;/div&gt;" style="ellipse;whiteSpace=wrap;html=1;" vertex="1" parent="1">
          <mxGeometry x="597" y="360" width="223" height="110" as="geometry" />
        </mxCell>
        <mxCell id="_MuA-XIjGsqE9UW4ploj-17" value="&lt;span style=&quot;font-size: 24px;&quot;&gt;Filtre de review&lt;/span&gt;" style="ellipse;whiteSpace=wrap;html=1;" vertex="1" parent="1">
          <mxGeometry x="597" y="500" width="223" height="110" as="geometry" />
        </mxCell>
        <mxCell id="_MuA-XIjGsqE9UW4ploj-18" value="&lt;span style=&quot;font-size: 24px;&quot;&gt;Afficher commentaire&lt;/span&gt;" style="ellipse;whiteSpace=wrap;html=1;" vertex="1" parent="1">
          <mxGeometry x="592" y="620" width="223" height="110" as="geometry" />
        </mxCell>
        <mxCell id="_MuA-XIjGsqE9UW4ploj-19" value="&lt;span style=&quot;font-size: 24px;&quot;&gt;API visible&lt;/span&gt;" style="ellipse;whiteSpace=wrap;html=1;" vertex="1" parent="1">
          <mxGeometry x="592" y="750" width="223" height="110" as="geometry" />
        </mxCell>
        <mxCell id="_MuA-XIjGsqE9UW4ploj-22" value="" style="endArrow=classic;html=1;rounded=0;entryX=-0.014;entryY=0.58;entryDx=0;entryDy=0;entryPerimeter=0;" edge="1" parent="1" target="_MuA-XIjGsqE9UW4ploj-14">
          <mxGeometry width="50" height="50" relative="1" as="geometry">
            <mxPoint x="270" y="360" as="sourcePoint" />
            <mxPoint x="320" y="310" as="targetPoint" />
          </mxGeometry>
        </mxCell>
        <mxCell id="_MuA-XIjGsqE9UW4ploj-23" value="" style="endArrow=classic;html=1;rounded=0;" edge="1" parent="1" target="_MuA-XIjGsqE9UW4ploj-15">
          <mxGeometry width="50" height="50" relative="1" as="geometry">
            <mxPoint x="270" y="360" as="sourcePoint" />
            <mxPoint x="592" y="233" as="targetPoint" />
          </mxGeometry>
        </mxCell>
        <mxCell id="_MuA-XIjGsqE9UW4ploj-24" value="" style="endArrow=classic;html=1;rounded=0;entryX=0;entryY=0.5;entryDx=0;entryDy=0;" edge="1" parent="1" target="_MuA-XIjGsqE9UW4ploj-16">
          <mxGeometry width="50" height="50" relative="1" as="geometry">
            <mxPoint x="270" y="360" as="sourcePoint" />
            <mxPoint x="320" y="310" as="targetPoint" />
          </mxGeometry>
        </mxCell>
        <mxCell id="_MuA-XIjGsqE9UW4ploj-25" value="" style="endArrow=classic;html=1;rounded=0;entryX=0.027;entryY=0.609;entryDx=0;entryDy=0;entryPerimeter=0;" edge="1" parent="1" target="_MuA-XIjGsqE9UW4ploj-17">
          <mxGeometry width="50" height="50" relative="1" as="geometry">
            <mxPoint x="270" y="360" as="sourcePoint" />
            <mxPoint x="509" y="459" as="targetPoint" />
          </mxGeometry>
        </mxCell>
        <mxCell id="_MuA-XIjGsqE9UW4ploj-26" value="" style="endArrow=classic;html=1;rounded=0;entryX=0;entryY=0.564;entryDx=0;entryDy=0;entryPerimeter=0;" edge="1" parent="1" target="_MuA-XIjGsqE9UW4ploj-18">
          <mxGeometry width="50" height="50" relative="1" as="geometry">
            <mxPoint x="270" y="360" as="sourcePoint" />
            <mxPoint x="592" y="660" as="targetPoint" />
          </mxGeometry>
        </mxCell>
        <mxCell id="_MuA-XIjGsqE9UW4ploj-27" value="" style="endArrow=classic;html=1;rounded=0;entryX=0;entryY=0.5;entryDx=0;entryDy=0;" edge="1" parent="1" target="_MuA-XIjGsqE9UW4ploj-19">
          <mxGeometry width="50" height="50" relative="1" as="geometry">
            <mxPoint x="270" y="360" as="sourcePoint" />
            <mxPoint x="499" y="640" as="targetPoint" />
          </mxGeometry>
        </mxCell>
        <mxCell id="_MuA-XIjGsqE9UW4ploj-30" value="&lt;font style=&quot;font-size: 25px;&quot;&gt;&lt;b&gt;Include&lt;/b&gt;&lt;/font&gt;" style="shape=singleArrow;direction=south;whiteSpace=wrap;html=1;" vertex="1" parent="1">
          <mxGeometry x="1000" y="190" width="60" height="495" as="geometry" />
        </mxCell>
        <mxCell id="_MuA-XIjGsqE9UW4ploj-31" value="" style="shape=singleArrow;whiteSpace=wrap;html=1;" vertex="1" parent="1">
          <mxGeometry x="795" y="150" width="255" height="60" as="geometry" />
        </mxCell>
        <mxCell id="_MuA-XIjGsqE9UW4ploj-32" value="" style="shape=singleArrow;direction=west;whiteSpace=wrap;html=1;" vertex="1" parent="1">
          <mxGeometry x="800" y="650" width="240" height="60" as="geometry" />
        </mxCell>
        <mxCell id="_MuA-XIjGsqE9UW4ploj-33" value="" style="shape=singleArrow;whiteSpace=wrap;html=1;" vertex="1" parent="1">
          <mxGeometry x="810" y="245" width="120" height="60" as="geometry" />
        </mxCell>
        <mxCell id="_MuA-XIjGsqE9UW4ploj-34" value="&lt;font style=&quot;font-size: 25px;&quot;&gt;&lt;b&gt;Extend&lt;/b&gt;&lt;/font&gt;" style="shape=singleArrow;direction=south;whiteSpace=wrap;html=1;" vertex="1" parent="1">
          <mxGeometry x="890" y="260" width="60" height="170" as="geometry" />
        </mxCell>
        <mxCell id="_MuA-XIjGsqE9UW4ploj-36" value="" style="shape=singleArrow;direction=west;whiteSpace=wrap;html=1;" vertex="1" parent="1">
          <mxGeometry x="800" y="385" width="130" height="60" as="geometry" />
        </mxCell>
      </root>
    </mxGraphModel>
  </diagram>
</mxfile>
